<?xml version="1.0" encoding="utf-8"?>
<!-- Generator: Adobe Illustrator 16.0.0, SVG Export Plug-In . SVG Version: 6.00 Build 0)  -->
<!DOCTYPE svg PUBLIC "-//W3C//DTD SVG 1.1//EN" "http://www.w3.org/Graphics/SVG/1.1/DTD/svg11.dtd">
<svg version="1.1" id="Layer_1" xmlns="http://www.w3.org/2000/svg" xmlns:xlink="http://www.w3.org/1999/xlink" x="0px" y="0px"
	 width="25px" height="25px" viewBox="0 0 800 800" enable-background="new 0 0 800 800" xml:space="preserve">
<g id="XMLID_2_">
	<path id="XMLID_10_" d="M302.5,318.75v292.5c0,4.735-1.523,8.633-4.57,11.68s-6.938,4.57-11.68,4.57h-32.5
		c-4.742,0-8.633-1.523-11.68-4.57s-4.57-6.944-4.57-11.68v-292.5c0-4.742,1.523-8.633,4.57-11.68s6.938-4.57,11.68-4.57h32.5
		c4.742,0,8.633,1.523,11.68,4.57S302.5,314.008,302.5,318.75z M432.5,318.75v292.5c0,4.735-1.523,8.633-4.57,11.68
		s-6.944,4.57-11.68,4.57h-32.5c-4.742,0-8.633-1.523-11.68-4.57s-4.57-6.944-4.57-11.68v-292.5c0-4.742,1.523-8.633,4.57-11.68
		s6.938-4.57,11.68-4.57h32.5c4.735,0,8.633,1.523,11.68,4.57S432.5,314.008,432.5,318.75z M562.5,318.75v292.5
		c0,4.735-1.523,8.633-4.57,11.68s-6.944,4.57-11.68,4.57h-32.5c-4.735,0-8.633-1.523-11.68-4.57s-4.57-6.944-4.57-11.68v-292.5
		c0-4.742,1.523-8.633,4.57-11.68s6.944-4.57,11.68-4.57h32.5c4.735,0,8.633,1.523,11.68,4.57S562.5,314.008,562.5,318.75z
		 M627.5,686.406V205h-455v481.406c0,7.452,1.187,14.308,3.555,20.566s4.824,10.829,7.363,13.711S187.734,725,188.75,725h422.5
		c1.016,0,2.793-1.435,5.332-4.316s4.989-7.452,7.363-13.711S627.5,693.858,627.5,686.406z M286.25,140h227.5l-24.375-59.414
		c-2.374-3.047-5.243-4.907-8.633-5.586H319.766c-3.383,0.679-6.265,2.539-8.633,5.586L286.25,140z M757.5,156.25v32.5
		c0,4.742-1.523,8.633-4.57,11.68s-6.944,4.57-11.68,4.57H692.5v481.406c0,28.095-7.96,52.394-23.867,72.871S633.594,790,611.25,790
		h-422.5c-22.344,0-41.469-9.902-57.383-29.707S107.5,716.532,107.5,688.438V205H58.75c-4.742,0-8.633-1.523-11.68-4.57
		s-4.57-6.938-4.57-11.68v-32.5c0-4.742,1.523-8.633,4.57-11.68S54.008,140,58.75,140h156.914l35.547-84.805
		c5.078-12.524,14.219-23.188,27.422-31.992S305.21,10,318.75,10h162.5c13.546,0,26.914,4.399,40.117,13.203
		s22.344,19.468,27.422,31.992L584.336,140H741.25c4.735,0,8.633,1.523,11.68,4.57S757.5,151.508,757.5,156.25z"/>
</g>
</svg>
